<svg width="10" height="10" viewBox="0 0 10 10" fill="none" xmlns="http://www.w3.org/2000/svg">
<path fill-rule="evenodd" clip-rule="evenodd" d="M2.46709 1.5C2.47802 1.5 2.48899 1.5 2.5 1.5L7.53291 1.5C7.97616 1.49998 8.35806 1.49995 8.66389 1.54107C8.99165 1.58514 9.30583 1.68451 9.56066 1.93934C9.81549 2.19417 9.91486 2.50835 9.95893 2.83611C10 3.14194 10 3.52385 10 3.9671V7.5329C10 7.97615 10 8.35806 9.95893 8.66389C9.91486 8.99165 9.81549 9.30583 9.56066 9.56066C9.30583 9.81549 8.99165 9.91486 8.66389 9.95893C8.35806 10 7.97615 10 7.5329 10H2.4671C2.02385 10 1.64194 10 1.33611 9.95893C1.00835 9.91486 0.694173 9.81549 0.439342 9.56066C0.184511 9.30583 0.0851386 8.99165 0.0410726 8.66389C-4.50946e-05 8.35806 -2.36948e-05 7.97616 1.21996e-06 7.53291L2.41205e-06 4C2.41205e-06 3.98899 1.81601e-06 3.97802 1.21996e-06 3.96708C-2.36948e-05 3.52384 -4.50946e-05 3.14194 0.0410726 2.83611C0.0851386 2.50835 0.184511 2.19417 0.439342 1.93934C0.694173 1.68451 1.00835 1.58514 1.33611 1.54107C1.64194 1.49995 2.02384 1.49998 2.46709 1.5ZM1.46935 2.53215C1.25248 2.56131 1.18451 2.60839 1.14645 2.64645C1.10839 2.68451 1.06131 2.75248 1.03215 2.96935C1.00106 3.20061 1 3.51446 1 4V7.5C1 7.98554 1.00106 8.29939 1.03215 8.53065C1.06131 8.74752 1.10839 8.81549 1.14645 8.85355C1.18451 8.89161 1.25248 8.93869 1.46935 8.96784C1.70061 8.99894 2.01446 9 2.5 9H7.5C7.98554 9 8.29939 8.99894 8.53065 8.96784C8.74752 8.93869 8.81549 8.89161 8.85355 8.85355C8.89161 8.81549 8.93869 8.74752 8.96784 8.53065C8.99894 8.29939 9 7.98554 9 7.5V4C9 3.51446 8.99894 3.20061 8.96784 2.96935C8.93869 2.75248 8.89161 2.68451 8.85355 2.64645C8.81549 2.60839 8.74752 2.56131 8.53065 2.53215C8.29939 2.50106 7.98554 2.5 7.5 2.5H2.5C2.01446 2.5 1.70061 2.50106 1.46935 2.53215Z" fill="#747474"/>
<path fill-rule="evenodd" clip-rule="evenodd" d="M0.500004 4.5C0.500004 4.22386 0.72386 4 1 4H9C9.27614 4 9.5 4.22386 9.5 4.5C9.5 4.77614 9.27614 5 9 5H1C0.723861 5 0.500004 4.77614 0.500004 4.5Z" fill="#747474"/>
<path fill-rule="evenodd" clip-rule="evenodd" d="M3 7C3 6.72385 3.22386 6.5 3.5 6.5H6.5C6.77614 6.5 7 6.72385 7 7C7 7.27614 6.77614 7.5 6.5 7.5H3.5C3.22386 7.5 3 7.27614 3 7Z" fill="#747474"/>
<path fill-rule="evenodd" clip-rule="evenodd" d="M3 0C3.27614 6.21809e-08 3.5 0.223858 3.5 0.5L3.5 2.5C3.5 2.77614 3.27614 3 3 3C2.72386 3 2.5 2.77614 2.5 2.5L2.5 0.5C2.5 0.223857 2.72386 -6.21809e-08 3 0Z" fill="#747474"/>
<path fill-rule="evenodd" clip-rule="evenodd" d="M7 0C7.27614 6.21809e-08 7.5 0.223858 7.5 0.5L7.5 2.5C7.5 2.77614 7.27614 3 7 3C6.72386 3 6.5 2.77614 6.5 2.5L6.5 0.5C6.5 0.223857 6.72386 -6.21809e-08 7 0Z" fill="#747474"/>
</svg>
