<svg width="8" height="10" viewBox="0 0 8 10" fill="none" xmlns="http://www.w3.org/2000/svg">
<path fill-rule="evenodd" clip-rule="evenodd" d="M4 1.50546C2.34315 1.50546 1 2.85593 1 4.52182C1 5.60057 1.54605 6.49045 2.22751 7.18156C2.88886 7.85227 3.6383 8.29387 4 8.48517C4.3617 8.29388 5.11114 7.85227 5.77249 7.18156C6.45395 6.49045 7 5.60057 7 4.52182C7 2.85593 5.65685 1.50546 4 1.50546ZM0 4.52182C0 2.30063 1.79086 0.5 4 0.5C6.20914 0.5 8 2.30063 8 4.52182C8 5.96493 7.2663 7.0947 6.48263 7.88946C5.6985 8.68468 4.82241 9.18905 4.42924 9.39409C4.15846 9.5353 3.84154 9.5353 3.57076 9.39409C3.17759 9.18905 2.3015 8.68468 1.51737 7.88946C0.733703 7.0947 0 5.96493 0 4.52182ZM4 3.51637C3.44772 3.51637 3 3.96652 3 4.52182C3 5.07712 3.44772 5.52728 4 5.52728C4.55228 5.52728 5 5.07712 5 4.52182C5 3.96652 4.55228 3.51637 4 3.51637ZM2 4.52182C2 3.41123 2.89543 2.51091 4 2.51091C5.10457 2.51091 6 3.41123 6 4.52182C6 5.63242 5.10457 6.53273 4 6.53273C2.89543 6.53273 2 5.63242 2 4.52182Z" fill="#747474"/>
</svg>
