<svg width="15" height="15" viewBox="0 0 15 15" fill="none" xmlns="http://www.w3.org/2000/svg">
<path d="M10.669 1.68142L5.66854 3.1907C3.67946 3.79106 2.68492 4.09124 2.55628 4.65944C2.52763 4.78599 2.52388 4.91691 2.54524 5.0449C2.64117 5.61952 3.61691 5.97611 5.56839 6.68927C6.34569 6.97333 6.73434 7.11536 7.02676 7.38344C7.09758 7.44836 7.16362 7.5183 7.22439 7.59272C7.4753 7.9 7.59486 8.29614 7.834 9.08842L7.834 9.08842C8.43435 11.0775 8.73453 12.072 9.30273 12.2007C9.42928 12.2293 9.5602 12.2331 9.68819 12.2117C10.2628 12.1158 10.6194 11.1401 11.3326 9.18858L11.3326 9.18857L13.1254 4.2826L13.1254 4.28259C13.7245 2.64328 14.0241 1.82362 13.5997 1.37428C13.1754 0.924935 12.3399 1.1771 10.669 1.68142Z" fill="#FFF5ED"/>
<path d="M6.03164 7.906L4.65051 7.40127C4.36067 7.29535 4.03816 7.32918 3.7766 7.49293L3.34706 7.76187C2.7584 8.13042 2.88675 9.02252 3.55543 9.21018L4.61299 9.50697C4.79078 9.55686 4.92659 9.70068 4.96624 9.88103L5.20204 10.9538C5.35113 11.6322 6.23443 11.8113 6.63606 11.2447L6.92913 10.8313C7.10758 10.5795 7.1598 10.2595 7.07063 9.96404L6.64574 8.5563C6.55479 8.25496 6.32728 8.01404 6.03164 7.906Z" fill="#222222"/>
</svg>
