<svg width="257" height="60" viewBox="0 0 257 60" fill="none" xmlns="http://www.w3.org/2000/svg">
<path d="M2 13.7615C2 13.7615 41.4354 0.66958 47.4669 10.9461C53.6632 21.5034 2.11723 58 2.11723 58M167.567 39.5086C167.567 39.5086 136.795 58.717 129.569 51.2372C122.146 43.553 158.39 2 158.39 2M3.47046 21.3651L3.48064 42.9044M34.5392 42.4615C34.5392 42.4615 22.688 49.5301 26.9986 52.7925C31.2431 56.005 36.8276 46.8363 38.0365 44.7211C38.0506 44.6964 38.0996 44.7236 38.0891 44.75C37.3469 46.6205 34.7639 53.6216 37.8088 53.3264C42.3332 52.8878 45.6017 43.4345 47.4559 43.2084C50.054 42.8915 48.1503 49.5865 46.9798 53.1022C46.9705 53.1301 47.1102 53.1841 47.1224 53.1572C48.5611 49.97 51.454 44.1735 53.3867 44.3691C56.2692 44.6609 49.5372 53.6889 53.0213 53.5212C56.6137 53.3483 61.4534 42.9552 63.2624 38.7625C63.274 38.7356 63.3862 38.7858 63.3772 38.8138C62.1231 42.6878 59.6189 51.6597 62.8126 53.0554C64.3484 53.7266 67.0857 53.3206 69.6321 52.0383M69.6321 52.0383C72.0653 50.813 74.3242 48.7878 75.1941 46.1379C75.9068 43.967 75.2428 41.0531 73.5226 40.2287C71.4649 39.2425 69.221 42.7179 68.2853 44.8C67.0066 47.6451 67.1683 50.8679 69.6321 52.0383ZM69.6321 52.0383C70.2314 52.323 70.967 52.4863 71.8511 52.4931C74.9631 52.5173 78.1722 51.5527 81.1537 49.7816M81.1537 49.7816C86.2139 46.7758 90.6188 41.4468 92.7825 34.6848C93.7941 31.5232 93.6937 28.694 91.7924 27.8607C88.4677 26.4035 84.9122 32.7676 82.854 38.7227C81.4777 42.7051 80.3734 46.8376 81.1537 49.7816ZM81.1537 49.7816C81.6935 51.8181 83.1352 53.286 86.0126 53.742C93.8393 54.9824 101.186 45.7837 101.186 45.7837M175.532 36.5003C175.532 36.5003 168.751 43.1459 173.293 47.2527C178.827 52.2561 186.333 44.4819 187.581 38.6537M187.581 38.6537C187.646 38.3531 187.693 38.0578 187.723 37.7696C187.977 35.3299 187.524 32.1441 184.088 31.7864C181.415 31.508 179.518 32.6418 179.24 35.317C179.032 37.3132 180.429 38.9389 183.327 39.1055C184.939 39.1982 186.323 39.0395 187.581 38.6537ZM187.581 38.6537C190.075 37.8889 192.079 36.2316 194.403 33.8689C195.709 32.5407 196.715 31.55 197.51 30.5723M197.51 30.5723C198.989 28.7539 199.738 26.9804 200.334 23.1646C200.635 21.2383 200.932 18.6792 199.878 17.8486C198.55 16.8023 198.005 23.4478 197.51 30.5723ZM197.51 30.5723C197.272 34.0024 197.046 37.5435 196.75 40.3906C196.456 43.2167 196.102 45.5276 194.963 47.4045M194.963 47.4045C194.205 48.6532 193.099 49.7098 191.431 50.5981C188.762 52.0193 184.531 49.8477 187.521 49.4065C190.293 48.9976 192.762 48.3043 194.963 47.4045ZM194.963 47.4045C207.257 42.3785 211.187 30.911 212.665 26.5976L212.693 26.5152C212.777 26.2715 212.917 26.3169 212.844 26.5641C210.642 34.0704 204.171 48.3394 210.65 48.3861C214.799 48.416 219.483 42.7514 222.58 38.1905C222.741 37.9527 222.931 38.065 222.801 38.3214C220.605 42.6554 218.558 47.8609 221.347 47.9401C224.813 48.0384 228.664 43.4752 231.262 39.6743M231.262 39.6743C231.722 39.0014 232.142 38.3523 232.515 37.7573C232.663 37.5205 232.535 37.4416 232.392 37.6815C232.023 38.2993 231.636 38.9757 231.262 39.6743ZM231.262 39.6743C229.375 43.2014 227.845 47.2931 230.93 47.2527C239.444 47.1413 242.882 39.67 243.521 38.0694C243.579 37.9237 243.76 37.879 243.874 37.9867C244.853 38.9103 248.341 42.608 245.096 45.701C243.201 47.5078 239.607 47.5228 237.504 47.3181M237.504 47.3181C235.759 47.1482 235.041 46.827 237.171 47.2527C237.282 47.2751 237.394 47.2968 237.504 47.3181ZM237.504 47.3181C252.365 50.1734 255 42.9228 255 42.9228M201.483 34.8507C201.483 34.8507 212.989 30.6018 220.617 28.8096C228.416 26.977 240.889 25.6622 240.889 25.6622" stroke="black" stroke-width="4" stroke-linecap="round"/>
<circle cx="65.5" cy="29.5" r="2.5" fill="black"/>
</svg>
