<svg width="35" height="50" viewBox="0 0 35 50" fill="none" xmlns="http://www.w3.org/2000/svg">
<path d="M17.6994 19.7446C23.2928 22.98 32.0242 22.5657 32.0242 22.5657C32.0242 22.5657 27.6007 28.1476 27.1621 32.7718C26.6793 37.8607 32.2949 47.2586 32.2949 47.2586C32.2949 47.2586 24.2965 38.2538 18.66 36.3376C13.6978 34.6506 6.31804 35.5153 6.31804 35.5153C6.31804 35.5153 11.911 28.8312 11.4548 22.4614C11.04 16.6714 6.0492 8.11496 3.95097 4.74611C3.36181 3.85078 3.03101 3.30841 3.03101 3.30841C3.03101 3.30841 3.38621 3.83934 3.95097 4.74611C6.16587 8.11204 12.0321 16.4664 17.6994 19.7446Z" fill="white"/>
<path d="M3.03101 3.30841C3.03101 3.30841 10.5246 15.5944 17.6994 19.7446C23.2928 22.98 32.0242 22.5657 32.0242 22.5657C32.0242 22.5657 27.6007 28.1476 27.1621 32.7718C26.6793 37.8607 32.2949 47.2586 32.2949 47.2586C32.2949 47.2586 24.2965 38.2538 18.66 36.3376C13.6978 34.6506 6.31804 35.5153 6.31804 35.5153C6.31804 35.5153 11.911 28.8312 11.4548 22.4614C10.9284 15.113 3.03101 3.30841 3.03101 3.30841Z" stroke="white" stroke-width="5" stroke-linejoin="round"/>
</svg>
