<svg width="1512" height="31" viewBox="0 0 1512 31" fill="none" xmlns="http://www.w3.org/2000/svg">
<path d="M48.1271 1.2729L-3.86821 14.8551C-7.48015 15.7986 -10 19.0612 -10 22.7943C-10 27.3262 -6.32622 31 -1.79435 31H1512.23C1518.18 31 1523 26.1763 1523 20.226C1523 14.7929 1518.95 10.2099 1513.56 9.53538L1474.89 4.69651C1472.32 4.37462 1469.71 4.51003 1467.18 5.09648L1431.98 13.2708C1428.38 14.1057 1424.64 14.0226 1421.08 13.0293L1399.67 7.04554C1396.59 6.18599 1393.37 6.00646 1390.21 6.51944L1335.41 15.4382C1332.82 15.8587 1330.19 15.8162 1327.62 15.3099C1310.67 11.9673 1282.87 6.50617 1282.5 6.50617C1282.13 6.50617 1257.91 13.0954 1243.24 17.1034C1241.09 17.6905 1238.87 17.9464 1236.64 17.8652L1196.51 16.4025C1190.74 16.1921 1185.26 13.6971 1181.29 9.49428C1176.98 4.92987 1170.91 2.39896 1164.64 2.57845L1130.09 3.56706C1124.27 3.73363 1118.75 6.20135 1114.75 10.4293L1113.5 11.746C1109.06 16.4338 1102.78 18.9344 1096.34 18.585L1050 16.0741L997.371 7.611C992.899 6.89201 988.315 7.57037 984.244 9.55351L980.327 11.4616C976.212 13.466 971.574 14.137 967.06 13.3811L943.804 9.48724C942.603 9.28622 941.388 9.18519 940.171 9.18519H915.563C911.912 9.18519 908.318 10.094 905.105 11.8297L898.941 15.1606C895.069 17.2523 890.66 18.135 886.281 17.6947L824.5 11.4815L773.458 3.45828C770.194 2.94536 766.858 3.17382 763.695 4.12673L726.674 15.2807C723.275 16.3047 719.679 16.4911 716.193 15.8239L689.549 10.7254C688.186 10.4646 686.802 10.3333 685.414 10.3333H621.371C620.126 10.3333 618.883 10.4391 617.656 10.6494L556.136 21.1917C553.729 21.6042 551.27 21.613 548.859 21.2177L482.5 10.3333L435.037 5.2472C433.351 5.06654 431.65 5.08138 429.968 5.2914L316 19.5185L244.267 25.1212C243.091 25.2131 241.909 25.2102 240.733 25.1126L136.5 16.4568L57.9414 0.973886C54.6892 0.332919 51.3342 0.435138 48.1271 1.2729Z" fill="#FFF5ED"/>
</svg>
